<svg width="64" height="64" viewBox="0 0 120 120" xmlns="http://www.w3.org/2000/svg">
  <rect width="120" height="120" rx="26" fill="#F6F1E9"/>
  <ellipse cx="60" cy="103" rx="33" ry="6" fill="#00000012"/>
  <path d="M20 72 Q20 36 60 36 Q100 36 100 72 L100 80 Q100 92 88 92 L32 92 Q20 92 20 80 Z" fill="#CC8A3C"/>
  <path d="M27 66 Q30 44 60 44 Q90 44 93 66 Q76 58 60 58 Q44 58 27 66 Z" fill="#E2AB60"/>
  <path d="M40 56 Q46 50 52 56" stroke="#B0721E" stroke-width="3" fill="none" stroke-linecap="round"/>
  <path d="M68 56 Q74 50 80 56" stroke="#B0721E" stroke-width="3" fill="none" stroke-linecap="round"/>
  <rect x="20" y="83" width="80" height="9" rx="4.5" fill="#B0721E"/>
  <circle cx="40" cy="77" r="4.5" fill="#E68A6A" opacity="0.45"/>
  <circle cx="80" cy="77" r="4.5" fill="#E68A6A" opacity="0.45"/>
  <circle cx="49" cy="70" r="3.8" fill="#3A2A18"/>
  <circle cx="71" cy="70" r="3.8" fill="#3A2A18"/>
  <circle cx="50.2" cy="68.8" r="1.2" fill="#fff"/>
  <circle cx="72.2" cy="68.8" r="1.2" fill="#fff"/>
  <path d="M54 78 Q60 84 66 78" stroke="#3A2A18" stroke-width="3" fill="none" stroke-linecap="round"/>
</svg>
