<svg width="64" height="64" viewBox="0 0 120 120" xmlns="http://www.w3.org/2000/svg">
  <defs>
    <radialGradient id="b" cx="40%" cy="32%" r="80%">
      <stop offset="0%" stop-color="#F0C074"/>
      <stop offset="55%" stop-color="#D7A04E"/>
      <stop offset="100%" stop-color="#C4863A"/>
    </radialGradient>
  </defs>
  <rect width="120" height="120" rx="26" fill="#F6F1E9"/>
  <path d="M60 30 C30 30 18 50 18 66 C18 86 36 96 60 96 C84 96 102 86 102 66 C102 50 90 30 60 30 Z" fill="url(#b)" stroke="#5C3A1C" stroke-width="4.5" stroke-linejoin="round"/>
  <path d="M34 60 Q60 50 86 60" stroke="#5C3A1C" stroke-width="4" fill="none" stroke-linecap="round"/>
  <path d="M40 60 Q43 70 40 80" stroke="#7A4E22" stroke-width="3" fill="none" stroke-linecap="round" opacity="0.8"/>
  <path d="M52 61 Q54 72 52 84" stroke="#7A4E22" stroke-width="3" fill="none" stroke-linecap="round" opacity="0.8"/>
  <path d="M68 61 Q66 72 68 84" stroke="#7A4E22" stroke-width="3" fill="none" stroke-linecap="round" opacity="0.8"/>
  <path d="M80 60 Q77 70 80 80" stroke="#7A4E22" stroke-width="3" fill="none" stroke-linecap="round" opacity="0.8"/>
  <path d="M34 44 Q48 36 64 38" stroke="#F6D79B" stroke-width="5" fill="none" stroke-linecap="round" opacity="0.8"/>
</svg>
